# xmcd
#
# Track frame offsets:
#	150
#	16587
#	29765
#	47772
#	61487
#	77627
#	90987
#	109192
#	122962
#	138910
#	159572
#	173580
#	185952
#
# Disc length: 2681 seconds
#
# Revision: 1
# Processed by: cddbd v1.5.2PL0 Copyright (c) Steve Scherf et al.
# Submitted via: audiograbber 1.82.02
#
DISCID=a80a770d
DTITLE=John Lee Hooker - The Folk Lore of John Lee Hooker
DYEAR=1997
DGENRE=Blues
TTITLE0=Five Long Years
TTITLE1=I Like to See You Walk
TTITLE2=Wednesday Evening Blues
TTITLE3=Take Me as I Am
TTITLE4=My First Wife Left Me
TTITLE5=You're Looking Good Tonight
TTITLE6=Sally Mae
TTITLE7=You're Gonna Miss Me When I'm Gone
TTITLE8=Dirty Ground Hog
TTITLE9=She Loves My Best Friend
TTITLE10=The Hobo
TTITLE11=Maudie
TTITLE12=Tupelo
EXTD=
EXTT0=
EXTT1=
EXTT2=
EXTT3=
EXTT4=
EXTT5=
EXTT6=
EXTT7=
EXTT8=
EXTT9=
EXTT10=
EXTT11=
EXTT12=
PLAYORDER=
